<?xml version="1.0" encoding="utf-8"?><svg viewBox="0 0 28 28" xmlns="http://www.w3.org/2000/svg" xmlns:xlink="http://www.w3.org/1999/xlink"><style>:root>svg{display:none}:root>svg:target{display:block}</style><svg fill="none" stroke="currentColor" stroke-width="2" stroke-linecap="round" stroke-linejoin="round" class="afeather afeather-chevron-down" viewBox="0 0 24 24" id="chevron-down" xmlns="http://www.w3.org/2000/svg"><path d="m6 9 6 6 6-6"/></svg><svg viewBox="0 0 24 24" fill="none" stroke="#065AA9" stroke-width="2" stroke-linecap="round" stroke-linejoin="round" class="bfeather bfeather-chevron-right" id="chevron-right--blue" xmlns="http://www.w3.org/2000/svg"><path d="m9 18 6-6-6-6"/></svg><svg viewBox="0 0 24 24" fill="none" stroke="#fff" stroke-width="2" stroke-linecap="round" stroke-linejoin="round" class="cfeather cfeather-chevron-right" id="chevron-right--white" xmlns="http://www.w3.org/2000/svg"><path d="m9 18 6-6-6-6"/></svg><svg viewBox="0 0 24 24" fill="none" stroke-linecap="round" stroke-linejoin="round" class="dfeather dfeather-phone" id="phone" xmlns="http://www.w3.org/2000/svg"><style>@media (min-width:769px){.dicon-phone{stroke:red}}@media (max-width:768px){.dicon-phone{fill:#fff}}</style><path class="dicon-phone" d="M22 16.92v3a2 2 0 0 1-2.18 2 19.79 19.79 0 0 1-8.63-3.07 19.5 19.5 0 0 1-6-6 19.79 19.79 0 0 1-3.07-8.67A2 2 0 0 1 4.11 2h3a2 2 0 0 1 2 1.72 12.84 12.84 0 0 0 .7 2.81 2 2 0 0 1-.45 2.11L8.09 9.91a16 16 0 0 0 6 6l1.27-1.27a2 2 0 0 1 2.11-.45 12.84 12.84 0 0 0 2.81.7A2 2 0 0 1 22 16.92z"/></svg><svg viewBox="0 0 24 24" fill="none" stroke="#fff" stroke-width="2" stroke-linecap="round" stroke-linejoin="round" class="efeather efeather-search" id="search" xmlns="http://www.w3.org/2000/svg"><circle cx="11" cy="11" r="8"/><path d="m21 21-4.35-4.35"/></svg><svg viewBox="0 0 24 24" fill="none" stroke="#D0DEE8" stroke-width="2" stroke-linecap="round" stroke-linejoin="round" class="ffeather ffeather-share" id="share" xmlns="http://www.w3.org/2000/svg"><path d="M4 12v8a2 2 0 0 0 2 2h12a2 2 0 0 0 2-2v-8M16 6l-4-4-4 4M12 2v13"/></svg><svg viewBox="0 0 24 24" fill="none" stroke="#fff" stroke-width="2" stroke-linecap="round" stroke-linejoin="round" class="gfeather gfeather-shopping-cart" id="shopping-cart" xmlns="http://www.w3.org/2000/svg"><circle cx="9" cy="21" r="1"/><circle cx="20" cy="21" r="1"/><path d="M1 1h4l2.68 13.39a2 2 0 0 0 2 1.61h9.72a2 2 0 0 0 2-1.61L23 6H6"/></svg><svg viewBox="0 0 24 19" id="tshit" xmlns="http://www.w3.org/2000/svg"><path data-name="Фигура 2 копия" d="M343 1139v18h14v-18a2.83 2.83 0 0 0-2-1c-1.294 0-3.212 3-5 3s-3.648-3-5-3a2.549 2.549 0 0 0-2 1Zm0 0-5 3 3 5 2-1v-7Zm14 0 5 3-3 5-2-1v-7Z" transform="translate(-338 -1138)" style="fill:#a0b8d0;fill-rule:evenodd"/></svg><svg viewBox="0 0 24 24" fill="none" stroke="currentColor" stroke-width="2" stroke-linecap="round" stroke-linejoin="round" class="ifeather ifeather-x" id="x" xmlns="http://www.w3.org/2000/svg"><path d="M18 6 6 18M6 6l12 12"/></svg></svg>